<?xml version="1.0" encoding="UTF-8"?>
<svg version="1.1" xmlns="http://www.w3.org/2000/svg" width="640" height="640">
<path d="M0 0 C2.72101701 0.00916249 5.44117336 0.00230429 8.16210938 -0.02050781 C26.72965924 -0.17520363 44.61800698 1.09722809 62.90698242 4.44604492 C64.51518105 4.73748131 64.51518105 4.73748131 66.15586853 5.0348053 C124.20915254 15.66687569 177.10676693 43.71348137 220.52026367 83.28198242 C222.10684639 84.72055333 223.70850132 86.14268008 225.32495117 87.54760742 C232.38558893 93.72145602 238.68972461 100.44108954 244.90698242 107.44604492 C245.36186035 107.95619141 245.81673828 108.46633789 246.28540039 108.99194336 C287.23899159 155.22745553 312.18123805 212.77456313 321.90698242 273.44604492 C322.19847168 275.13105103 322.19847168 275.13105103 322.49584961 276.85009766 C324.44463061 289.71083645 324.2815704 302.67957202 324.27758789 315.65917969 C324.27742651 318.37267045 324.29115193 321.08547757 324.31860352 323.79882812 C324.78133329 370.29325622 314.47278532 416.65131135 293.90698242 458.44604492 C293.09634503 460.14230532 292.28647034 461.83893038 291.47729492 463.53588867 C286.28285886 474.30305566 280.51526294 484.48944493 273.90698242 494.44604492 C273.40263672 495.21335937 272.89829102 495.98067383 272.37866211 496.77124023 C265.91413464 506.57229801 259.22187428 515.87869991 251.4309082 524.66723633 C249.47297356 526.95264354 247.6088152 529.30829747 245.72729492 531.65698242 C240.98451586 537.47229865 235.85826466 542.79175929 230.53198242 548.07104492 C229.6631543 548.94760742 228.79432617 549.82416992 227.89916992 550.72729492 C221.87935986 556.7292949 215.54334532 562.14199723 208.90698242 567.44604492 C207.82127086 568.35680488 206.73946458 569.27228173 205.66479492 570.19604492 C198.73097982 576.1216792 191.50886018 581.41431528 183.90698242 586.44604492 C183.35284668 586.81584473 182.79871094 587.18564453 182.2277832 587.56665039 C157.31235334 604.14098397 130.37348471 617.2136658 101.90698242 626.44604492 C101.04540527 626.7302832 100.18382812 627.01452148 99.29614258 627.30737305 C87.95784594 630.99137626 76.41798755 633.47628988 64.71948242 635.69604492 C63.42582764 635.94249756 62.13217285 636.1889502 60.79931641 636.44287109 C43.23590771 639.64598156 26.08376836 640.79600702 8.22338867 640.76171875 C4.80769586 640.75856864 1.39288093 640.78207787 -2.02270508 640.80737305 C-16.92884836 640.85031747 -31.36311014 639.70441646 -46.09301758 637.44604492 C-47.35678223 637.25792236 -48.62054688 637.0697998 -49.92260742 636.87597656 C-123.47694822 625.18374659 -197.17427467 583.66140223 -243.09301758 524.44604492 C-243.98204574 523.33408926 -244.87276232 522.22348205 -245.76489258 521.11401367 C-255.85327435 508.51624113 -264.74487444 495.2450741 -273.09301758 481.44604492 C-273.46394531 480.84018555 -273.83487305 480.23432617 -274.21704102 479.61010742 C-302.16175261 433.61306192 -315.98246204 377.56685258 -315.55957031 324.12841797 C-315.53526226 320.78595869 -315.53428402 317.44535555 -315.54626083 314.10296345 C-315.59155651 298.30289269 -314.82091799 283.01489939 -312.09301758 267.44604492 C-311.97969086 266.77066681 -311.86636414 266.0952887 -311.74960327 265.39944458 C-303.14505446 214.28515783 -281.9984351 163.76360427 -249.09301758 123.44604492 C-248.35825195 122.52049805 -247.62348633 121.59495117 -246.86645508 120.64135742 C-242.09543195 114.69022257 -237.06214258 109.04352897 -231.86645508 103.46557617 C-229.76602822 101.20708148 -227.74975435 98.88826209 -225.74145508 96.54760742 C-222.16555197 92.44635079 -218.33195639 88.70472204 -214.34301758 85.00854492 C-213.28824219 84.02760864 -213.28824219 84.02760864 -212.2121582 83.02685547 C-206.68716745 77.92457958 -201.04081749 73.05235735 -195.09301758 68.44604492 C-194.52711914 68.00228516 -193.9612207 67.55852539 -193.37817383 67.10131836 C-182.74525471 58.78943286 -171.65139548 51.40660121 -160.09301758 44.44604492 C-159.10446777 43.84928955 -159.10446777 43.84928955 -158.09594727 43.24047852 C-128.74419801 25.70695041 -96.95996526 13.21133661 -63.53051758 6.19604492 C-62.421521 5.96199951 -61.31252441 5.7279541 -60.16992188 5.48681641 C-56.48688669 4.74724153 -52.79522101 4.08049958 -49.09301758 3.44604492 C-48.34178619 3.31293915 -47.59055481 3.17983337 -46.81655884 3.04269409 C-31.23689622 0.35242535 -15.78041257 -0.0555333 0 0 Z " fill="#C4084F" transform="translate(316.093017578125,-0.446044921875)"/>
<path d="M0 0 C0 7.92 0 15.84 0 24 C-1.94777344 24.03738281 -3.89554687 24.07476562 -5.90234375 24.11328125 C-63.72749284 25.44124572 -117.19794553 40.68489551 -163 77 C-163.80800049 77.63228516 -163.80800049 77.63228516 -164.63232422 78.27734375 C-181.5447617 91.60713395 -196.67535947 107.35867781 -209 125 C-209.45020508 125.63744141 -209.90041016 126.27488281 -210.36425781 126.93164062 C-230.54975338 155.69189917 -244.77538283 188.36271589 -251 223 C-251.16226074 223.88671387 -251.32452148 224.77342773 -251.49169922 225.68701172 C-256.9512256 257.01872089 -256.56823011 293.13210248 -247.64941406 323.72167969 C-246.85904209 326.49451851 -246.13010537 329.28141709 -245.3984375 332.0703125 C-242.43116615 343.24165668 -239.27470372 353.68244768 -234 364 C-233.18273247 365.76021541 -232.37218344 367.52355757 -231.56640625 369.2890625 C-223.78309534 386.22614424 -214.5279765 401.3619579 -203 416 C-202.28328125 416.91007812 -201.5665625 417.82015625 -200.828125 418.7578125 C-195.18128774 425.78632271 -189.17522482 432.43764335 -183 439 C-182.38382812 439.65871094 -181.76765625 440.31742187 -181.1328125 440.99609375 C-176.16178868 446.14550359 -170.57796751 450.53141963 -165 455 C-164.20722656 455.66 -163.41445312 456.32 -162.59765625 457 C-133.30756457 481.17285437 -97.85928978 496.04698243 -61 504 C-60.02981934 504.21317871 -59.05963867 504.42635742 -58.06005859 504.64599609 C-13.7666599 513.97520534 44.26082076 510.37572054 84.453125 488.35546875 C86.52880373 487.2507747 88.59131616 486.26155417 90.734375 485.30078125 C113.05252792 475.2740497 133.72745918 461.54887353 151.3359375 444.5234375 C154 442 154 442 156.6484375 439.890625 C158.79211773 438.16713458 160.48366209 436.47141115 162.25 434.375 C164.11512917 432.18237492 165.98129763 430.01982227 167.95703125 427.92578125 C187.65839111 406.98166399 202.36535301 381.13855452 212.67578125 354.40234375 C213.53366371 352.19816788 214.45515854 350.01729921 215.44921875 347.87109375 C217.76926019 342.4984841 219.05693998 336.78047879 220.5 331.125 C220.96345825 329.31298096 220.96345825 329.31298096 221.4362793 327.46435547 C225.52602047 311.21618856 227.38908848 295.91457093 229 279 C174.55 279 120.1 279 64 279 C64 270.75 64 262.5 64 254 C127.03 254 190.06 254 255 254 C255 282.5514043 255 282.5514043 253.9375 293.5625 C253.87608826 294.21557129 253.81467651 294.86864258 253.75140381 295.54150391 C248.95563332 345.16459237 228.77785041 392.95802964 198 432 C196.82630859 433.49466797 196.82630859 433.49466797 195.62890625 435.01953125 C184.92586012 448.35541225 173.14401682 461.13265651 159.7578125 471.796875 C157.9800802 473.21704641 156.2228031 474.66340172 154.4921875 476.140625 C118.80097566 506.48361243 73.16207009 524.89828861 27.19458008 531.61450195 C24.83320791 531.97374894 24.83320791 531.97374894 22 533 C14.63878587 533.99080813 7.25665049 534.15935846 -0.16015625 534.16796875 C-1.1895079 534.17129715 -2.21885956 534.17462555 -3.27940369 534.17805481 C-5.44497232 534.18308342 -7.61054859 534.1854644 -9.77612305 534.18530273 C-13.02992051 534.18747822 -16.28337213 534.20564792 -19.53710938 534.22460938 C-36.45647671 534.27227138 -52.57055526 533.22252828 -69.0625 529.1875 C-70.17681396 528.9203418 -71.29112793 528.65318359 -72.43920898 528.37792969 C-75.63080685 527.60272505 -78.81630198 526.80696441 -82 526 C-82.79792969 525.80035645 -83.59585938 525.60071289 -84.41796875 525.39501953 C-112.69191035 518.17846932 -140.34541137 505.02191241 -164 488 C-164.97710937 487.31421875 -165.95421875 486.6284375 -166.9609375 485.921875 C-186.96699065 471.6878764 -205.9379616 454.4482364 -221 435 C-221.78632813 434.01902344 -222.57265625 433.03804688 -223.3828125 432.02734375 C-260.15560783 385.80739382 -280.27863986 327.20483394 -280.1875 268.25 C-280.18659363 267.16384903 -280.18659363 267.16384903 -280.18566895 266.05575562 C-280.03248279 198.075663 -254.81746163 130.96441732 -206.5 82.375 C-205.33560251 81.24765152 -204.1688601 80.12272088 -203 79 C-200.57655487 76.59594243 -198.17264427 74.18098309 -195.81640625 71.7109375 C-181.73350834 57.11549044 -164.43911568 45.22374671 -147 35 C-146.04262939 34.42813965 -146.04262939 34.42813965 -145.06591797 33.84472656 C-120.69475302 19.3562879 -93.73996085 9.62328299 -66 4 C-64.5461792 3.70150146 -64.5461792 3.70150146 -63.06298828 3.39697266 C-42.0729872 -0.73603675 -21.29011007 -0.39487067 0 0 Z " fill="#FEFBFC" transform="translate(333,53)"/>
<path d="M0 0 C8.25 0 16.5 0 25 0 C25 84.15 25 168.3 25 255 C45.79 255 66.58 255 88 255 C88 263.25 88 271.5 88 280 C58.96 280 29.92 280 0 280 C0 187.6 0 95.2 0 0 Z " fill="#FEFEFE" transform="translate(308,180)"/>
<path d="M0 0 C9.58526965 6.5070733 15.26542904 14.9810836 17.9453125 26.26953125 C19.50758055 37.97924128 16.27597456 48.18425836 9.3203125 57.64453125 C2.05101819 66.06594014 -6.53236168 70.64842178 -17.4609375 71.55078125 C-28.66520434 72.00623925 -37.2049871 69.75082675 -45.9296875 62.58203125 C-54.30018975 54.51480807 -59.10398923 44.42146149 -59.4296875 32.83203125 C-59.12156533 22.23262877 -56.05110528 14.30395321 -49.0546875 6.26953125 C-44.54158752 2.09393266 -39.73872616 -1.33054132 -34.0546875 -3.73046875 C-33.1884375 -4.12234375 -32.3221875 -4.51421875 -31.4296875 -4.91796875 C-20.54369003 -7.53867185 -9.67848856 -5.48282664 0 0 Z " fill="#FEFCFC" transform="translate(239.0546875,184.73046875)"/>
</svg>
